<?xml version="1.0" encoding="iso-8859-1"?>
<!-- Generator: Adobe Illustrator 20.0.0, SVG Export Plug-In . SVG Version: 6.00 Build 0)  -->
<svg version="1.1" id="Layer_1" xmlns="http://www.w3.org/2000/svg" xmlns:xlink="http://www.w3.org/1999/xlink" x="0px" y="0px"
	 viewBox="0 0 669.216 93.405" style="enable-background:new 0 0 669.216 93.405;" xml:space="preserve">
<g>
	<g>
		<path style="fill:#F1F1EF;" d="M180.405,17.405c3.242,0,6.156,0.388,8.74,1.16c2.584,0.773,4.788,1.947,6.612,3.52
			c1.824,1.574,3.23,3.534,4.218,5.88c0.988,2.348,1.482,5.067,1.482,8.16c0,3.147-0.494,5.894-1.482,8.24
			c-0.988,2.348-2.394,4.294-4.218,5.84c-1.824,1.548-4.028,2.72-6.612,3.52c-2.584,0.8-5.498,1.2-8.74,1.2h-9.728v16.32
			c0,0.588-0.203,1.094-0.608,1.52c-0.406,0.428-0.887,0.64-1.444,0.64h-9.956c-0.558,0-1.039-0.212-1.444-0.64
			c-0.406-0.426-0.608-0.932-0.608-1.52v-51.68c0-0.586,0.202-1.093,0.608-1.52c0.405-0.426,0.886-0.64,1.444-0.64H180.405z
			 M170.677,42.445h9.348c2.128,0,3.888-0.493,5.282-1.48c1.393-0.986,2.09-2.6,2.09-4.84c0-2.24-0.697-3.853-2.09-4.84
			c-1.394-0.986-3.154-1.48-5.282-1.48h-9.348V42.445z"/>
		<path style="fill:#F1F1EF;" d="M220.722,71.245c0,0.588-0.203,1.094-0.608,1.52c-0.406,0.428-0.887,0.64-1.444,0.64h-9.576
			c-0.558,0-1.039-0.212-1.444-0.64c-0.406-0.426-0.608-0.932-0.608-1.52v-52.48c0-0.586,0.202-1.092,0.608-1.52
			c0.405-0.426,0.886-0.64,1.444-0.64h9.576c0.557,0,1.038,0.213,1.444,0.64c0.405,0.428,0.608,0.934,0.608,1.52V71.245z"/>
		<path style="fill:#F1F1EF;" d="M240.884,57.164c0,1.228,0.215,2.24,0.646,3.04c0.43,0.8,0.975,1.44,1.634,1.92
			c0.658,0.48,1.393,0.813,2.204,1c0.81,0.188,1.596,0.28,2.356,0.28c1.52,0,2.723-0.16,3.61-0.48
			c0.886-0.32,1.634-0.772,2.242-1.36c0.557-0.48,0.962-0.787,1.216-0.92c0.253-0.133,0.684-0.2,1.292-0.2h9.88
			c1.114,0,1.672,0.587,1.672,1.76c0,0.64-0.38,1.614-1.14,2.92c-0.76,1.307-1.938,2.64-3.534,4c-1.596,1.36-3.661,2.547-6.194,3.56
			c-2.534,1.013-5.548,1.52-9.044,1.52c-3.294,0-6.22-0.494-8.778-1.48c-2.559-0.986-4.712-2.412-6.46-4.28
			c-1.748-1.866-3.066-4.132-3.952-6.8c-0.887-2.667-1.33-5.68-1.33-9.04c0-3.093,0.443-5.96,1.33-8.6
			c0.886-2.64,2.204-4.92,3.952-6.84c1.748-1.92,3.901-3.426,6.46-4.52c2.558-1.093,5.484-1.64,8.778-1.64
			c3.698,0,6.852,0.654,9.462,1.96c2.609,1.308,4.737,3,6.384,5.08c1.646,2.08,2.837,4.414,3.572,7
			c0.734,2.587,1.102,5.16,1.102,7.72v2.24c0,0.587-0.203,1.094-0.608,1.52c-0.406,0.427-0.887,0.64-1.444,0.64H240.884z
			 M247.724,41.805c-2.128,0-3.75,0.667-4.864,2c-1.115,1.334-1.774,2.828-1.976,4.48h13.68c-0.203-1.652-0.862-3.146-1.976-4.48
			C251.473,42.472,249.852,41.805,247.724,41.805z"/>
		<path style="fill:#F1F1EF;" d="M315.334,71.245c0,0.588-0.203,1.094-0.608,1.52c-0.406,0.428-0.887,0.64-1.444,0.64h-9.576
			c-0.558,0-1.039-0.212-1.444-0.64c-0.406-0.426-0.608-0.932-0.608-1.52v-20.24c0-2.292-0.532-4.133-1.596-5.52
			c-1.064-1.386-2.736-2.08-5.016-2.08s-3.94,0.694-4.978,2.08c-1.039,1.387-1.558,3.228-1.558,5.52v20.24
			c0,0.588-0.203,1.094-0.608,1.52c-0.406,0.428-0.887,0.64-1.444,0.64h-9.576c-0.558,0-1.039-0.212-1.444-0.64
			c-0.406-0.426-0.608-0.932-0.608-1.52v-37.28c0-0.586,0.202-1.093,0.608-1.52c0.405-0.426,0.886-0.64,1.444-0.64h9.196
			c0.557,0,1.038,0.214,1.444,0.64c0.405,0.427,0.608,0.934,0.608,1.52v1.84c0.405-0.532,0.912-1.092,1.52-1.68
			c0.608-0.586,1.342-1.106,2.204-1.56c0.861-0.453,1.862-0.826,3.002-1.12c1.14-0.292,2.47-0.44,3.99-0.44
			c2.432,0,4.661,0.36,6.688,1.08c2.026,0.72,3.762,1.827,5.206,3.32c1.444,1.494,2.571,3.388,3.382,5.68
			c0.81,2.293,1.216,5.014,1.216,8.16V71.245z"/>
		<path style="fill:#F1F1EF;" d="M341.188,57.164c0,1.228,0.253,2.174,0.76,2.84c0.506,0.667,1.342,1,2.508,1h6.08
			c0.557,0,1.038,0.214,1.444,0.64c0.405,0.427,0.608,0.934,0.608,1.52v8.08c0,0.588-0.203,1.094-0.608,1.52
			c-0.406,0.428-0.887,0.64-1.444,0.64h-7.22c-2.382,0-4.548-0.36-6.498-1.08c-1.951-0.72-3.61-1.76-4.978-3.12
			c-1.368-1.36-2.432-3.012-3.192-4.96c-0.76-1.946-1.14-4.146-1.14-6.6v-13.44h-5.624c-0.558,0-1.039-0.212-1.444-0.64
			c-0.406-0.426-0.608-0.933-0.608-1.52v-8.08c0-0.586,0.202-1.093,0.608-1.52c0.405-0.426,0.886-0.64,1.444-0.64h5.624v-13.04
			c0-0.586,0.202-1.092,0.608-1.52c0.405-0.426,0.886-0.64,1.444-0.64h9.576c0.557,0,1.038,0.213,1.444,0.64
			c0.405,0.428,0.608,0.934,0.608,1.52v13.04h8.588c0.557,0,1.038,0.214,1.444,0.64c0.405,0.427,0.608,0.934,0.608,1.52v8.08
			c0,0.587-0.203,1.094-0.608,1.52c-0.406,0.427-0.887,0.64-1.444,0.64h-8.588V57.164z"/>
		<path style="fill:#F1F1EF;" d="M379.697,86.684c-0.152,0.426-0.406,0.853-0.76,1.28c-0.355,0.426-0.836,0.64-1.444,0.64h-9.956
			c-0.507,0-0.938-0.188-1.292-0.56c-0.355-0.374-0.532-0.828-0.532-1.36c0-0.213,0.025-0.4,0.076-0.56l5.776-14.32l-15.352-37.52
			c-0.051-0.16-0.076-0.346-0.076-0.56c0-0.532,0.177-0.986,0.532-1.36c0.354-0.373,0.785-0.56,1.292-0.56h9.956
			c0.608,0,1.089,0.214,1.444,0.64c0.354,0.427,0.608,0.854,0.76,1.28l8.436,20.8l8.36-20.8c0.152-0.426,0.405-0.853,0.76-1.28
			c0.354-0.426,0.836-0.64,1.444-0.64h10.032c0.506,0,0.937,0.188,1.292,0.56c0.354,0.374,0.532,0.828,0.532,1.36
			c0,0.214-0.026,0.4-0.076,0.56L379.697,86.684z"/>
		<path style="fill:#F1F1EF;" d="M405.757,38.285c0.152-2.986,0.772-5.8,1.862-8.44c1.089-2.64,2.634-4.933,4.636-6.88
			c2.001-1.946,4.433-3.493,7.296-4.64c2.862-1.146,6.167-1.72,9.918-1.72c3.698,0,6.992,0.574,9.88,1.72
			c2.888,1.147,5.332,2.694,7.334,4.64c2.001,1.947,3.546,4.24,4.636,6.88c1.089,2.64,1.71,5.454,1.862,8.44
			c0.101,2.294,0.152,4.694,0.152,7.2c0,2.507-0.051,4.854-0.152,7.04c-0.152,2.987-0.773,5.8-1.862,8.44
			c-1.09,2.64-2.635,4.947-4.636,6.92c-2.002,1.974-4.446,3.52-7.334,4.64c-2.888,1.12-6.182,1.68-9.88,1.68
			c-3.75,0-7.056-0.56-9.918-1.68c-2.863-1.12-5.295-2.667-7.296-4.64c-2.002-1.973-3.547-4.28-4.636-6.92
			c-1.09-2.64-1.71-5.453-1.862-8.44c-0.102-2.187-0.152-4.533-0.152-7.04C405.605,42.978,405.655,40.579,405.757,38.285z
			 M439.121,52.125c0.05-0.96,0.101-2.026,0.152-3.2c0.05-1.172,0.076-2.373,0.076-3.6c0-1.226-0.026-2.413-0.076-3.56
			c-0.051-1.146-0.102-2.172-0.152-3.08c-0.102-1.333-0.368-2.56-0.798-3.68c-0.431-1.12-1.039-2.093-1.824-2.92
			c-0.786-0.827-1.761-1.48-2.926-1.96c-1.167-0.48-2.534-0.72-4.104-0.72c-1.571,0-2.939,0.24-4.104,0.72
			c-1.167,0.48-2.141,1.133-2.926,1.96c-0.786,0.827-1.394,1.8-1.824,2.92c-0.431,1.12-0.697,2.347-0.798,3.68
			c-0.102,0.908-0.165,1.934-0.19,3.08c-0.026,1.147-0.038,2.334-0.038,3.56c0,1.228,0.012,2.428,0.038,3.6
			c0.025,1.174,0.088,2.24,0.19,3.2c0.202,2.667,1.076,4.88,2.622,6.64c1.545,1.76,3.888,2.64,7.03,2.64
			c3.141,0,5.472-0.88,6.992-2.64C437.981,57.005,438.867,54.792,439.121,52.125z"/>
		<path style="fill:#F1F1EF;" d="M479.286,31.805h9.348c0.557,0,1.038,0.214,1.444,0.64c0.405,0.427,0.608,0.934,0.608,1.52v8.08
			c0,0.587-0.203,1.094-0.608,1.52c-0.406,0.427-0.887,0.64-1.444,0.64h-9.348v27.04c0,0.588-0.203,1.094-0.608,1.52
			c-0.406,0.428-0.887,0.64-1.444,0.64h-9.576c-0.558,0-1.039-0.212-1.444-0.64c-0.406-0.426-0.608-0.932-0.608-1.52v-27.04h-5.244
			c-0.558,0-1.039-0.212-1.444-0.64c-0.406-0.426-0.608-0.933-0.608-1.52v-8.08c0-0.586,0.202-1.093,0.608-1.52
			c0.405-0.426,0.886-0.64,1.444-0.64h5.244v-2.16c0-2.453,0.418-4.64,1.254-6.56c0.836-1.92,1.988-3.533,3.458-4.84
			c1.469-1.306,3.217-2.306,5.244-3c2.026-0.692,4.229-1.04,6.612-1.04h7.22c0.557,0,1.038,0.214,1.444,0.64
			c0.405,0.428,0.608,0.934,0.608,1.52v8.08c0,0.587-0.203,1.094-0.608,1.52c-0.406,0.427-0.887,0.64-1.444,0.64h-6.84
			c-1.216,0-2.065,0.32-2.546,0.96c-0.482,0.64-0.722,1.467-0.722,2.48V31.805z"/>
		<path style="fill:#F1F1EF;" d="M509.602,38.684c-0.051,0.694-0.089,1.654-0.114,2.88c-0.026,1.228-0.038,2.494-0.038,3.8
			c0,1.308,0.012,2.587,0.038,3.84c0.025,1.254,0.063,2.228,0.114,2.92c0.101,1.227,0.329,2.4,0.684,3.52
			c0.354,1.12,0.912,2.107,1.672,2.96c0.76,0.854,1.722,1.534,2.888,2.04c1.165,0.507,2.609,0.76,4.332,0.76
			c1.722,0,3.141-0.212,4.256-0.64c1.114-0.426,2.026-0.946,2.736-1.56c0.709-0.612,1.254-1.292,1.634-2.04
			c0.38-0.746,0.671-1.44,0.874-2.08c0.253-0.853,0.532-1.453,0.836-1.8c0.304-0.346,0.886-0.52,1.748-0.52h9.956
			c0.456,0,0.848,0.174,1.178,0.52c0.329,0.348,0.494,0.76,0.494,1.24c-0.051,2.72-0.684,5.28-1.9,7.68
			c-1.216,2.4-2.888,4.48-5.016,6.24c-2.128,1.76-4.625,3.16-7.486,4.2c-2.863,1.04-5.966,1.56-9.31,1.56
			c-3.648,0-6.904-0.574-9.766-1.72c-2.863-1.146-5.308-2.707-7.334-4.68c-2.027-1.972-3.585-4.28-4.674-6.92
			c-1.09-2.64-1.71-5.426-1.862-8.36c-0.102-2.187-0.152-4.533-0.152-7.04c0-2.506,0.05-4.906,0.152-7.2
			c0.101-2.933,0.709-5.72,1.824-8.36c1.114-2.64,2.672-4.946,4.674-6.92c2.001-1.973,4.446-3.533,7.334-4.68
			c2.888-1.146,6.156-1.72,9.804-1.72c3.344,0,6.447,0.52,9.31,1.56c2.862,1.04,5.358,2.44,7.486,4.2
			c2.128,1.76,3.8,3.84,5.016,6.24c1.216,2.4,1.849,4.96,1.9,7.68c0,0.48-0.166,0.894-0.494,1.24c-0.33,0.347-0.722,0.52-1.178,0.52
			h-9.956c-0.862,0-1.444-0.173-1.748-0.52c-0.304-0.346-0.583-0.946-0.836-1.8c-0.203-0.64-0.494-1.333-0.874-2.08
			c-0.38-0.747-0.925-1.426-1.634-2.04c-0.71-0.613-1.622-1.133-2.736-1.56c-1.115-0.426-2.534-0.64-4.256-0.64
			c-1.723,0-3.167,0.254-4.332,0.76c-1.166,0.508-2.128,1.188-2.888,2.04c-0.76,0.854-1.318,1.84-1.672,2.96
			C509.931,36.285,509.703,37.458,509.602,38.684z"/>
		<path style="fill:#F1F1EF;" d="M547.306,61.565c0-3.52,1.279-6.426,3.838-8.72c2.558-2.292,6.726-3.973,12.502-5.04l8.892-1.6
			c0-1.28-0.33-2.333-0.988-3.16c-0.659-0.826-1.799-1.24-3.42-1.24c-1.166,0-2.065,0.174-2.698,0.52
			c-0.634,0.348-1.102,0.654-1.406,0.92c-0.456,0.428-0.887,0.694-1.292,0.8c-0.406,0.107-0.887,0.16-1.444,0.16h-9.652
			c-0.507,0-0.925-0.16-1.254-0.48c-0.33-0.32-0.469-0.746-0.418-1.28c0.101-1.226,0.608-2.506,1.52-3.84
			c0.912-1.333,2.166-2.56,3.762-3.68c1.596-1.12,3.496-2.053,5.7-2.8c2.204-0.747,4.598-1.12,7.182-1.12
			c3.09,0,5.776,0.4,8.056,1.2c2.28,0.8,4.167,1.908,5.662,3.32c1.494,1.414,2.596,3.094,3.306,5.04
			c0.709,1.947,1.064,4.094,1.064,6.44v24.24c0,0.588-0.203,1.094-0.608,1.52c-0.406,0.428-0.887,0.64-1.444,0.64h-9.576
			c-0.558,0-1.039-0.212-1.444-0.64c-0.406-0.426-0.608-0.932-0.608-1.52v-2.24c-1.216,1.6-2.724,2.867-4.522,3.8
			c-1.799,0.933-4.168,1.4-7.106,1.4c-2.179,0-4.117-0.32-5.814-0.96c-1.698-0.64-3.116-1.52-4.256-2.64
			c-1.14-1.12-2.014-2.453-2.622-4C547.609,65.058,547.306,63.378,547.306,61.565z M564.633,63.405c1.114,0,2.153-0.2,3.116-0.6
			c0.962-0.4,1.798-0.946,2.508-1.64c0.709-0.692,1.266-1.506,1.672-2.44c0.405-0.932,0.608-1.932,0.608-3l-6.992,1.12
			c-1.368,0.268-2.47,0.72-3.306,1.36c-0.836,0.64-1.254,1.468-1.254,2.48c0,1.014,0.316,1.72,0.95,2.12
			C562.568,63.204,563.467,63.405,564.633,63.405z"/>
		<path style="fill:#F1F1EF;" d="M612.201,57.164c0,1.228,0.253,2.174,0.76,2.84c0.506,0.667,1.342,1,2.508,1h6.08
			c0.557,0,1.038,0.214,1.444,0.64c0.405,0.427,0.608,0.934,0.608,1.52v8.08c0,0.588-0.203,1.094-0.608,1.52
			c-0.406,0.428-0.887,0.64-1.444,0.64h-7.22c-2.382,0-4.548-0.36-6.498-1.08c-1.951-0.72-3.61-1.76-4.978-3.12
			c-1.368-1.36-2.432-3.012-3.192-4.96c-0.76-1.946-1.14-4.146-1.14-6.6v-13.44h-5.624c-0.558,0-1.039-0.212-1.444-0.64
			c-0.406-0.426-0.608-0.933-0.608-1.52v-8.08c0-0.586,0.202-1.093,0.608-1.52c0.405-0.426,0.886-0.64,1.444-0.64h5.624v-13.04
			c0-0.586,0.202-1.092,0.608-1.52c0.405-0.426,0.886-0.64,1.444-0.64h9.576c0.557,0,1.038,0.213,1.444,0.64
			c0.405,0.428,0.608,0.934,0.608,1.52v13.04h8.588c0.557,0,1.038,0.214,1.444,0.64c0.405,0.427,0.608,0.934,0.608,1.52v8.08
			c0,0.587-0.203,1.094-0.608,1.52c-0.406,0.427-0.887,0.64-1.444,0.64h-8.588V57.164z"/>
		<path style="fill:#F1F1EF;" d="M652.496,60.925c0-0.586-0.19-1.04-0.57-1.36c-0.38-0.32-1.026-0.586-1.938-0.8
			c-0.912-0.212-2.116-0.426-3.61-0.64c-1.495-0.213-3.357-0.533-5.586-0.96c-3.851-0.746-6.815-2.24-8.892-4.48
			c-2.078-2.24-3.116-5.172-3.116-8.8c0-1.812,0.43-3.493,1.292-5.04c0.861-1.546,2.064-2.906,3.61-4.08
			c1.545-1.172,3.407-2.092,5.586-2.76c2.178-0.667,4.61-1,7.296-1c2.634,0,5.065,0.333,7.296,1c2.229,0.667,4.154,1.52,5.776,2.56
			c1.621,1.04,2.9,2.24,3.838,3.6c0.937,1.36,1.456,2.708,1.558,4.04c0.05,0.588-0.14,1.094-0.57,1.52
			c-0.431,0.428-0.925,0.64-1.482,0.64h-9.044c-0.558,0-1.001-0.132-1.33-0.4c-0.331-0.266-0.722-0.56-1.178-0.88
			c-0.456-0.32-1.052-0.613-1.786-0.88c-0.735-0.266-1.761-0.4-3.078-0.4c-1.167,0-2.141,0.174-2.926,0.52
			c-0.786,0.348-1.178,0.92-1.178,1.72c0,0.587,0.125,1.04,0.38,1.36c0.253,0.32,0.76,0.574,1.52,0.76
			c0.76,0.188,1.824,0.388,3.192,0.6c1.368,0.214,3.166,0.508,5.396,0.88c4.61,0.8,7.967,2.44,10.07,4.92
			c2.102,2.48,3.154,5.32,3.154,8.52c0,1.813-0.431,3.507-1.292,5.08c-0.862,1.574-2.128,2.96-3.8,4.16
			c-1.672,1.2-3.699,2.147-6.08,2.84c-2.382,0.693-5.092,1.04-8.132,1.04s-5.713-0.36-8.018-1.08c-2.306-0.72-4.244-1.64-5.814-2.76
			c-1.571-1.12-2.774-2.346-3.61-3.68c-0.836-1.333-1.305-2.64-1.406-3.92c-0.051-0.586,0.139-1.092,0.57-1.52
			c0.43-0.426,0.924-0.64,1.482-0.64h9.424c0.557,0,0.962,0.147,1.216,0.44c0.253,0.293,0.582,0.614,0.988,0.96
			c0.405,0.347,0.988,0.667,1.748,0.96c0.76,0.293,1.9,0.44,3.42,0.44s2.837-0.212,3.952-0.64
			C651.938,62.338,652.496,61.724,652.496,60.925z"/>
	</g>
	<path style="fill:#F769B0;" d="M129.087,53.951c-0.026-0.616-0.11-1.535-0.528-2.398c-0.867-1.791-2.133-3.077-3.764-3.822
		c-0.703-0.321-1.532-0.641-2.614-0.647c-2.005,0.03-3.446,1.078-4.479,1.988c-0.439,0.388-1.231,1.205-1.596,2.316
		c-0.555,1.686-0.825,3.246-0.827,4.769c-0.001,1.162-0.239,2.319-0.706,3.439c-0.184,0.442-0.285,0.859-0.374,1.228
		c-0.029,0.118-0.057,0.235-0.089,0.354c-0.041,0.151-0.075,0.308-0.107,0.463c-0.017,0.083-0.03,0.166-0.027,0.179l-0.487,0.956
		c-0.556,1.099-1.081,2.138-1.702,3.089c-0.619,0.948-1.404,1.907-2.402,2.934c-1.986,2.044-4.041,3.524-6.278,4.526
		c-0.598,0.268-1.236,0.495-1.911,0.735l-0.768,0.276c-0.376,0.138-0.758,0.268-1.145,0.379l-0.307,0.09
		c-0.318,0.095-0.619,0.185-0.846,0.212c-2.133,0.249-4.407,0.284-6.757,0.104c-1.181-0.09-2.322-0.208-3.312-0.656
		c-0.457-0.206-0.928-0.382-1.399-0.556c-0.525-0.194-1.021-0.377-1.443-0.598l-0.341-0.178c-1.269-0.662-2.467-1.287-3.469-2.073
		c-0.972-0.763-1.862-1.678-2.805-2.647c-0.312-0.32-0.623-0.641-0.938-0.956c-1.273-1.274-1.958-3.029-2.604-4.891
		c-0.252-2.003-0.097-3.353,0.52-4.509c0.13-0.244,0.287-0.578,0.347-1.001c0.064-0.459,0.457-0.958,0.911-1.535l0.069-0.088
		c0.294-0.375,0.615-0.728,0.935-1.082c0.269-0.298,0.537-0.596,0.794-0.902c0.415-0.495,0.824-0.995,1.232-1.495
		c0.517-0.632,1.034-1.265,1.565-1.885c0.386-0.452,0.791-0.89,1.194-1.328c0.778-0.844,1.582-1.716,2.296-2.703
		c1.197-1.652,2.544-3.162,3.971-4.759c1.014-1.136,2.063-2.312,3.05-3.54c0.533-0.663,1.107-1.297,1.716-1.969
		c1.013-1.118,2.06-2.274,2.953-3.623c0.179-0.27,0.361-0.536,0.542-0.803c0.717-1.051,1.458-2.137,2.032-3.427
		c0.413-0.928,0.818-1.951,0.992-3.141c0.011-0.074,0.072-0.252,0.121-0.396c0.066-0.193,0.13-0.387,0.183-0.583l0.098-0.347
		c0.127-0.437,0.271-0.931,0.327-1.5c0.347-3.524-0.281-7.073-1.866-10.547c-0.211-0.464-0.461-0.873-0.683-1.233
		c-0.137-0.224-0.276-0.447-0.395-0.68c-0.8-1.576-1.925-2.79-2.815-3.671c-2.676-2.648-5.962-4.455-9.769-5.37
		c-1.975-0.474-4.081-0.571-6.627-0.303c-2.005,0.211-4.034,0.822-6.033,1.814c-1.886,0.938-4.05,3.16-5.794,5.11
		c-0.825,0.923-1.703,1.972-2.464,3.176C63.852,9.3,63.096,8.37,62.18,7.419c-2.876-2.981-5.887-5.781-9.203-6.502
		c-1.292-0.281-2.559-0.548-3.867-0.721c-2.144-0.284-4.17,0.172-6.044,0.708c-1.224,0.35-2.326,0.684-3.417,1.227
		c-2.281,1.136-4.377,2.738-6.229,4.762c-1.347,1.473-2.37,2.959-3.126,4.543c-0.51,1.067-0.972,2.21-1.412,3.493
		c-0.388,1.127-0.606,2.064-0.688,2.95c-0.099,1.079-0.084,2.132-0.07,3.151l0.007,0.555c0.008,0.756,0.08,1.375,0.227,1.946
		c0.515,2.008,1.282,3.921,2.036,5.694c0.077,0.179,0.177,0.392,0.338,0.618c0.268,0.373,0.53,0.75,0.793,1.126
		c0.877,1.259,1.785,2.56,2.906,3.767c0.832,0.896,1.604,1.845,2.42,2.85c0.5,0.616,1.001,1.231,1.516,1.835
		c1.943,2.277,3.904,4.54,5.865,6.802l0.461,0.532c0.27,0.311,0.548,0.614,0.827,0.917c0.339,0.368,0.679,0.734,0.996,1.121
		c0.87,1.06,1.726,2.132,2.581,3.204l1.238,1.548c0.942,1.174,1.644,2.089,2.088,3.181c0.469,1.153,0.891,2.285,0.901,3.458
		c0.014,1.594,0.029,3.243-0.609,4.682c-0.707,1.595-1.427,2.697-2.336,3.573c-0.231,0.223-0.468,0.439-0.704,0.657
		c-0.444,0.408-0.904,0.831-1.349,1.302c-1.024,1.085-2.411,1.824-3.879,2.606l-0.126,0.067c-0.893,0.476-1.887,0.843-2.94,1.231
		c-0.374,0.138-0.748,0.275-1.116,0.417c-0.315,0.122-0.635,0.206-0.924,0.243c-2.793,0.361-5.753,0.366-8.801,0.012
		c-0.126-0.015-0.264-0.045-0.396-0.089c-0.89-0.291-1.777-0.59-2.664-0.89l-0.516-0.174c-0.103-0.035-0.207-0.067-0.305-0.112
		c-1.71-0.787-3.167-1.669-4.451-2.698c-0.218-0.175-0.438-0.347-0.659-0.52c-0.943-0.736-1.834-1.432-2.433-2.289
		c-0.297-0.426-0.621-0.834-0.946-1.242c-0.266-0.333-0.533-0.667-0.777-1.015c-0.521-0.742-0.999-1.524-1.438-2.26
		c-0.715-1.197-1.111-2.608-1.53-4.101c-0.093-0.333-0.187-0.666-0.284-0.997c-0.242-0.826-0.262-1.829-0.284-2.906
		c-0.026-1.309-0.259-2.61-0.694-3.87c-0.257-0.747-0.675-1.362-1.009-1.813c-0.704-0.952-1.673-1.714-2.962-2.332
		c-2.144-1.025-3.854-0.52-4.911,0.084C4,47.914,3.709,48.063,3.417,48.211c-1.815,0.922-3.267,3.19-3.376,5.275
		c-0.171,3.25,0.201,6.438,1.105,9.478c0.427,1.437,0.973,2.941,1.623,4.47c0.77,1.812,1.432,3.163,2.148,4.377
		c0.861,1.462,1.806,3.005,3.036,4.382c2.086,2.332,4.451,4.975,7.556,6.879c1.434,0.879,2.847,1.73,4.369,2.484
		c1.451,0.72,2.69,1.241,3.899,1.639c1.82,0.6,3.478,1.052,5.066,1.384c3.483,0.727,6.86,0.55,10.601,0.264
		c0.62-0.048,1.16-0.202,1.636-0.338c0.293-0.083,0.569-0.163,0.784-0.19c2.075-0.267,3.955-0.994,5.858-1.778
		c1.543-0.636,3.15-1.44,4.777-2.391c1.399-0.817,3.009-1.791,4.419-3.009c3.371-2.91,5.839-5.714,7.62-8.676
		c0.094,0.157,0.19,0.312,0.29,0.465c0.553,0.852,1.157,1.647,1.74,2.417l0.46,0.612c0.539,0.72,1.097,1.465,1.745,2.173
		c1.535,1.676,3.28,2.981,5.083,4.281c1.385,0.998,2.934,1.967,4.875,3.049c1.618,0.903,3.309,1.428,4.943,1.936l0.916,0.287
		c0.988,0.315,1.978,0.545,2.935,0.768c0.385,0.089,0.77,0.179,1.158,0.275c0.3,0.073,0.58,0.116,0.854,0.131l4.99,0.204L94.615,89
		c0.065,0,0.13,0,0.195,0c2.051,0,4.14-0.191,6.377-0.708c2.164-0.499,4.289-1.121,6.313-1.907c2.817-1.093,5.294-2.727,7.138-4.042
		c3.773-2.691,6.901-6.102,9.295-10.154c1.153-1.951,2.141-3.997,3.021-6.263l0.067-0.171c0.499-1.284,1.064-2.734,1.167-4.382
		l0.036-0.132C128.9,58.789,129.19,56.337,129.087,53.951z"/>
	<path style="fill:#232123;" d="M123.935,72.19c1.153-1.951,2.141-3.997,3.021-6.263l0.067-0.171
		c0.499-1.284,1.064-2.734,1.167-4.382l0.036-0.132c0.676-2.451,0.966-4.904,0.862-7.29c-0.026-0.616-0.11-1.535-0.528-2.398
		c-0.867-1.791-2.133-3.077-3.764-3.822c-0.703-0.321-1.532-0.641-2.614-0.647c-2.005,0.03-3.446,1.078-4.479,1.988
		c-0.439,0.388-1.231,1.205-1.596,2.316c-0.555,1.686-0.825,3.246-0.827,4.769c-0.001,1.162-0.239,2.319-0.706,3.439
		c-0.184,0.442-0.285,0.859-0.374,1.228c-0.029,0.118-0.057,0.235-0.089,0.354c-0.041,0.151-0.075,0.308-0.107,0.463
		c-0.017,0.083-0.03,0.166-0.027,0.179l-0.487,0.956c-0.556,1.099-1.081,2.138-1.702,3.089c-0.619,0.948-1.404,1.907-2.402,2.934
		c-1.986,2.044-4.041,3.524-6.278,4.526c-0.598,0.268-1.236,0.495-1.911,0.735l-0.768,0.276c-0.376,0.138-0.758,0.268-1.145,0.379
		l-0.307,0.09c-0.318,0.095-0.619,0.185-0.846,0.212c-2.133,0.249-4.407,0.284-6.757,0.104c-1.181-0.09-2.322-0.208-3.312-0.656
		c-0.457-0.206-0.928-0.382-1.399-0.556c-0.525-0.194-1.021-0.377-1.443-0.598l-0.341-0.178c-1.269-0.662-2.467-1.287-3.469-2.073
		c-0.972-0.763-1.862-1.678-2.805-2.647c-0.312-0.32-0.623-0.641-0.938-0.956c-1.273-1.274-1.958-3.029-2.604-4.891
		c-0.252-2.003,0.52-4.509,1.778-7.045l0.069-0.088c0.294-0.375,0.615-0.728,0.935-1.082c0.269-0.298,0.537-0.596,0.794-0.902
		c0.415-0.495-8.32,8.955-14.086,8.877c-7.844-0.107-14.22-8.781-14.22-8.781c0.942,1.174,1.644,2.089,2.088,3.181
		c0.469,1.153,0.891,2.285,0.901,3.458c0.014,1.594,0.029,3.243-0.609,4.682c-0.707,1.595-1.427,2.697-2.336,3.573
		c-0.231,0.223-0.468,0.439-0.704,0.657c-0.444,0.408-0.904,0.831-1.349,1.302c-1.024,1.085-2.411,1.824-3.879,2.606l-0.126,0.067
		c-0.893,0.476-1.887,0.843-2.94,1.231c-0.374,0.138-0.748,0.275-1.116,0.417c-0.315,0.122-0.635,0.206-0.924,0.243
		c-2.793,0.361-5.753,0.366-8.801,0.012c-0.126-0.015-0.264-0.045-0.396-0.089c-0.89-0.291-1.777-0.59-2.664-0.89l-0.516-0.174
		c-0.103-0.035-0.207-0.067-0.305-0.112c-1.71-0.787-3.167-1.669-4.451-2.698c-0.218-0.175-0.438-0.347-0.659-0.52
		c-0.943-0.736-1.834-1.432-2.433-2.289c-0.297-0.426-0.621-0.834-0.946-1.242c-0.266-0.333-0.533-0.667-0.777-1.015
		c-0.521-0.742-0.999-1.524-1.438-2.26c-0.715-1.197-1.111-2.608-1.53-4.101c-0.093-0.333-0.187-0.666-0.284-0.997
		c-0.242-0.826-0.262-1.829-0.284-2.906c-0.026-1.309-0.259-2.61-0.694-3.87c-0.257-0.747-0.675-1.362-1.009-1.813
		c-0.704-0.952-1.673-1.714-2.962-2.332c-2.144-1.025-3.854-0.52-4.911,0.084C4,47.914,3.709,48.063,3.417,48.211
		c-1.815,0.922-3.267,3.19-3.376,5.275c-0.171,3.25,0.201,6.438,1.105,9.478c0.427,1.437,0.973,2.941,1.623,4.47
		c0.77,1.812,1.432,3.163,2.148,4.377c0.861,1.462,1.806,3.005,3.036,4.382c2.086,2.332,4.451,4.975,7.556,6.879
		c1.434,0.879,2.847,1.73,4.369,2.484c1.451,0.72,2.69,1.241,3.899,1.639c1.82,0.6,3.478,1.052,5.066,1.384
		c3.483,0.727,6.86,0.55,10.601,0.264c0.62-0.048,1.16-0.202,1.636-0.338c0.293-0.083,0.569-0.163,0.784-0.19
		c2.075-0.267,3.955-0.994,5.858-1.778c1.543-0.636,3.15-1.44,4.777-2.391c1.399-0.817,3.009-1.791,4.419-3.009
		c3.371-2.91,5.839-5.714,7.62-8.676c0.094,0.157,0.19,0.312,0.29,0.465c0.553,0.852,1.157,1.647,1.74,2.417l0.46,0.612
		c0.539,0.72,1.097,1.465,1.745,2.173c1.535,1.676,3.28,2.981,5.083,4.281c1.385,0.998,2.934,1.967,4.875,3.049
		c1.618,0.903,3.309,1.428,4.943,1.936l0.916,0.287c0.988,0.315,1.978,0.545,2.935,0.768c0.385,0.089,0.77,0.179,1.158,0.275
		c0.3,0.073,0.58,0.116,0.854,0.131l4.99,0.204L94.615,89c0.065,0,0.13,0,0.195,0c2.051,0,4.14-0.191,6.377-0.708
		c2.164-0.499,4.289-1.121,6.313-1.907c2.817-1.093,5.294-2.727,7.138-4.042C118.413,79.652,121.541,76.241,123.935,72.19z"/>
</g>
<g>
</g>
<g>
</g>
<g>
</g>
<g>
</g>
<g>
</g>
<g>
</g>
<g>
</g>
<g>
</g>
<g>
</g>
<g>
</g>
<g>
</g>
<g>
</g>
<g>
</g>
<g>
</g>
<g>
</g>
</svg>
