<?xml version="1.0" encoding="iso-8859-1"?>
<!-- Generator: Adobe Illustrator 20.0.0, SVG Export Plug-In . SVG Version: 6.00 Build 0)  -->
<svg version="1.1" id="Layer_1" xmlns="http://www.w3.org/2000/svg" xmlns:xlink="http://www.w3.org/1999/xlink" x="0px" y="0px"
	 viewBox="0 0 479.857 101.535" style="enable-background:new 0 0 479.857 101.535;" xml:space="preserve">
<g>
	<path style="fill:#F1F1EF;" d="M185.863,15.798c3.85,0,7.31,0.437,10.378,1.309c3.069,0.873,5.686,2.197,7.852,3.971
		c2.166,1.775,3.835,3.987,5.009,6.633c1.173,2.648,1.76,5.717,1.76,9.206c0,3.551-0.586,6.649-1.76,9.296
		c-1.173,2.648-2.843,4.844-5.009,6.588c-2.166,1.746-4.783,3.068-7.852,3.971c-3.068,0.903-6.529,1.354-10.378,1.354h-11.552
		v18.411c0,0.663-0.241,1.234-0.722,1.714c-0.482,0.482-1.054,0.722-1.715,0.722h-11.823c-0.663,0-1.234-0.24-1.715-0.722
		c-0.482-0.48-0.722-1.052-0.722-1.714V18.234c0-0.661,0.24-1.232,0.722-1.715c0.481-0.481,1.052-0.722,1.715-0.722H185.863z
		 M174.311,44.046h11.101c2.527,0,4.617-0.556,6.272-1.669c1.654-1.113,2.482-2.933,2.482-5.46c0-2.527-0.828-4.346-2.482-5.46
		c-1.655-1.113-3.745-1.669-6.272-1.669h-11.101V44.046z"/>
	<path style="fill:#F1F1EF;" d="M230.571,60.652c0,1.385,0.255,2.527,0.767,3.43c0.511,0.902,1.158,1.625,1.94,2.166
		c0.781,0.542,1.654,0.918,2.617,1.128c0.962,0.211,1.896,0.316,2.798,0.316c1.805,0,3.233-0.181,4.287-0.542
		c1.052-0.361,1.94-0.872,2.663-1.534c0.661-0.542,1.142-0.887,1.444-1.038c0.3-0.149,0.812-0.226,1.534-0.226h11.733
		c1.323,0,1.985,0.663,1.985,1.986c0,0.722-0.451,1.82-1.354,3.294c-0.902,1.475-2.301,2.978-4.196,4.512
		c-1.896,1.535-4.348,2.874-7.355,4.017c-3.009,1.142-6.588,1.714-10.74,1.714c-3.912,0-7.386-0.557-10.424-1.669
		c-3.039-1.113-5.596-2.722-7.671-4.829c-2.076-2.105-3.641-4.662-4.693-7.671c-1.053-3.008-1.58-6.408-1.58-10.198
		c0-3.489,0.526-6.724,1.58-9.702c1.052-2.978,2.617-5.55,4.693-7.716s4.632-3.865,7.671-5.099c3.038-1.232,6.512-1.85,10.424-1.85
		c4.391,0,8.137,0.737,11.236,2.211c3.098,1.475,5.625,3.385,7.581,5.731c1.955,2.347,3.369,4.979,4.242,7.897
		c0.871,2.919,1.309,5.821,1.309,8.709v2.527c0,0.663-0.241,1.234-0.722,1.714c-0.482,0.482-1.053,0.722-1.715,0.722H230.571z
		 M238.694,43.324c-2.527,0-4.453,0.753-5.776,2.256c-1.324,1.505-2.107,3.19-2.347,5.054h16.245
		c-0.241-1.864-1.024-3.549-2.347-5.054C243.146,44.077,241.221,43.324,238.694,43.324z"/>
	<path style="fill:#F1F1EF;" d="M291.454,60.652c0,1.385,0.3,2.452,0.902,3.204c0.601,0.753,1.594,1.128,2.979,1.128h7.22
		c0.662,0,1.233,0.241,1.715,0.722c0.481,0.482,0.722,1.053,0.722,1.715v9.115c0,0.663-0.241,1.234-0.722,1.714
		c-0.482,0.482-1.053,0.722-1.715,0.722h-8.574c-2.829,0-5.401-0.406-7.716-1.218c-2.317-0.812-4.287-1.986-5.911-3.52
		s-2.888-3.398-3.791-5.595c-0.902-2.196-1.354-4.678-1.354-7.446V46.031h-6.678c-0.663,0-1.234-0.24-1.715-0.722
		c-0.482-0.481-0.722-1.052-0.722-1.715v-9.115c0-0.662,0.24-1.232,0.722-1.715c0.481-0.481,1.052-0.722,1.715-0.722h6.678v-14.71
		c0-0.662,0.24-1.232,0.722-1.715c0.481-0.481,1.052-0.722,1.715-0.722h11.372c0.661,0,1.232,0.241,1.714,0.722
		c0.481,0.482,0.722,1.053,0.722,1.715v14.71h10.198c0.662,0,1.232,0.241,1.715,0.722c0.481,0.482,0.722,1.053,0.722,1.715v9.115
		c0,0.663-0.241,1.234-0.722,1.715c-0.482,0.482-1.053,0.722-1.715,0.722h-10.198V60.652z"/>
	<path style="fill:#F1F1EF;" d="M357.084,64.533c0.661,0,1.232,0.241,1.715,0.722c0.481,0.482,0.722,1.053,0.722,1.714v9.567
		c0,0.663-0.241,1.234-0.722,1.714c-0.482,0.482-1.054,0.722-1.715,0.722h-41.786c-0.663,0-1.234-0.24-1.715-0.722
		c-0.482-0.48-0.722-1.052-0.722-1.714V18.234c0-0.661,0.24-1.232,0.722-1.715c0.481-0.481,1.052-0.722,1.715-0.722h11.823
		c0.661,0,1.232,0.241,1.715,0.722c0.48,0.482,0.722,1.054,0.722,1.715v46.298H357.084z"/>
	<path style="fill:#F1F1EF;" d="M381.089,24.642c0,0.663-0.241,1.234-0.722,1.715c-0.482,0.482-1.053,0.722-1.714,0.722h-11.372
		c-0.663,0-1.234-0.24-1.715-0.722c-0.482-0.481-0.722-1.052-0.722-1.715v-9.115c0-0.661,0.24-1.232,0.722-1.715
		c0.481-0.481,1.052-0.722,1.715-0.722h11.372c0.661,0,1.232,0.241,1.714,0.722c0.481,0.482,0.722,1.054,0.722,1.715V24.642z
		 M381.089,76.536c0,0.663-0.241,1.234-0.722,1.714c-0.482,0.482-1.053,0.722-1.714,0.722h-11.372c-0.663,0-1.234-0.24-1.715-0.722
		c-0.482-0.48-0.722-1.052-0.722-1.714V34.479c0-0.662,0.24-1.232,0.722-1.715c0.481-0.481,1.052-0.722,1.715-0.722h11.372
		c0.661,0,1.232,0.241,1.714,0.722c0.481,0.482,0.722,1.053,0.722,1.715V76.536z"/>
	<path style="fill:#F1F1EF;" d="M411.557,32.042h11.101c0.662,0,1.233,0.241,1.715,0.722c0.481,0.482,0.722,1.053,0.722,1.715v9.115
		c0,0.663-0.241,1.234-0.722,1.715c-0.482,0.482-1.053,0.722-1.715,0.722h-11.101v30.505c0,0.663-0.241,1.234-0.722,1.714
		c-0.482,0.482-1.053,0.722-1.714,0.722h-11.372c-0.663,0-1.234-0.24-1.715-0.722c-0.482-0.48-0.722-1.052-0.722-1.714V46.031
		h-6.227c-0.663,0-1.234-0.24-1.715-0.722c-0.482-0.481-0.722-1.052-0.722-1.715v-9.115c0-0.662,0.24-1.232,0.722-1.715
		c0.481-0.481,1.052-0.722,1.715-0.722h6.227v-2.437c0-2.767,0.497-5.234,1.489-7.4s2.361-3.985,4.106-5.46
		c1.744-1.474,3.82-2.602,6.227-3.384c2.406-0.781,5.023-1.173,7.852-1.173h8.574c0.661,0,1.232,0.241,1.715,0.722
		c0.48,0.482,0.722,1.053,0.722,1.715v9.115c0,0.663-0.241,1.234-0.722,1.715c-0.482,0.482-1.054,0.722-1.715,0.722h-8.123
		c-1.444,0-2.452,0.361-3.023,1.083c-0.573,0.722-0.857,1.656-0.857,2.798V32.042z"/>
	<path style="fill:#F1F1EF;" d="M444.389,60.652c0,1.385,0.255,2.527,0.767,3.43c0.511,0.902,1.158,1.625,1.94,2.166
		c0.781,0.542,1.654,0.918,2.617,1.128c0.962,0.211,1.896,0.316,2.798,0.316c1.805,0,3.233-0.181,4.287-0.542
		c1.052-0.361,1.94-0.872,2.663-1.534c0.661-0.542,1.142-0.887,1.444-1.038c0.3-0.149,0.812-0.226,1.534-0.226h11.733
		c1.323,0,1.985,0.663,1.985,1.986c0,0.722-0.451,1.82-1.354,3.294c-0.902,1.475-2.301,2.978-4.196,4.512
		c-1.896,1.535-4.348,2.874-7.355,4.017c-3.009,1.142-6.588,1.714-10.74,1.714c-3.912,0-7.386-0.557-10.424-1.669
		c-3.039-1.113-5.596-2.722-7.671-4.829c-2.076-2.105-3.641-4.662-4.693-7.671c-1.053-3.008-1.58-6.408-1.58-10.198
		c0-3.489,0.526-6.724,1.58-9.702c1.052-2.978,2.617-5.55,4.693-7.716s4.632-3.865,7.671-5.099c3.038-1.232,6.512-1.85,10.424-1.85
		c4.391,0,8.137,0.737,11.236,2.211c3.098,1.475,5.625,3.385,7.581,5.731c1.955,2.347,3.369,4.979,4.242,7.897
		c0.871,2.919,1.309,5.821,1.309,8.709v2.527c0,0.663-0.241,1.234-0.722,1.714c-0.482,0.482-1.053,0.722-1.715,0.722H444.389z
		 M452.512,43.324c-2.527,0-4.453,0.753-5.776,2.256c-1.324,1.505-2.107,3.19-2.347,5.054h16.245
		c-0.241-1.864-1.024-3.549-2.347-5.054C456.963,44.077,455.039,43.324,452.512,43.324z"/>
</g>
<path style="fill:#FC72C4;" d="M129.087,53.951c-0.026-0.616-0.11-1.535-0.528-2.398c-0.867-1.791-2.133-3.077-3.764-3.822
	c-0.703-0.321-1.532-0.641-2.614-0.647c-2.005,0.03-3.446,1.078-4.479,1.988c-0.439,0.388-1.231,1.205-1.596,2.316
	c-0.555,1.686-0.825,3.246-0.827,4.769c-0.001,1.162-0.239,2.319-0.706,3.439c-0.184,0.442-0.285,0.859-0.374,1.228
	c-0.029,0.118-0.057,0.235-0.089,0.354c-0.041,0.151-0.075,0.308-0.107,0.463c-0.017,0.083-0.03,0.166-0.027,0.179l-0.487,0.956
	c-0.556,1.099-1.081,2.138-1.702,3.089c-0.619,0.948-1.404,1.907-2.402,2.934c-1.986,2.044-4.041,3.524-6.278,4.526
	c-0.598,0.268-1.236,0.495-1.911,0.735l-0.768,0.276c-0.376,0.138-0.758,0.268-1.145,0.379l-0.307,0.09
	c-0.318,0.095-0.619,0.185-0.846,0.212c-2.133,0.249-4.407,0.284-6.757,0.104c-1.181-0.09-2.322-0.208-3.312-0.656
	c-0.457-0.206-0.928-0.382-1.399-0.556c-0.525-0.194-1.021-0.377-1.443-0.598l-0.341-0.178c-1.269-0.662-2.467-1.287-3.469-2.073
	c-0.972-0.763-1.862-1.678-2.805-2.647c-0.312-0.32-0.623-0.641-0.938-0.956c-1.273-1.274-1.958-3.029-2.604-4.891
	c-0.252-2.003-0.097-3.353,0.52-4.509c0.13-0.244,0.287-0.578,0.347-1.001c0.064-0.459,0.457-0.958,0.911-1.535l0.069-0.088
	c0.294-0.375,0.615-0.728,0.935-1.082c0.269-0.298,0.537-0.596,0.794-0.902c0.415-0.495,0.824-0.995,1.232-1.495
	c0.517-0.632,1.034-1.265,1.565-1.885c0.386-0.452,0.791-0.89,1.194-1.328c0.778-0.844,1.582-1.716,2.296-2.703
	c1.197-1.652,2.544-3.162,3.971-4.759c1.014-1.136,2.063-2.312,3.05-3.54c0.533-0.663,1.107-1.297,1.716-1.969
	c1.013-1.118,2.06-2.274,2.953-3.623c0.179-0.27,0.361-0.536,0.542-0.803c0.717-1.051,1.458-2.137,2.032-3.427
	c0.413-0.928,0.818-1.951,0.992-3.141c0.011-0.074,0.072-0.252,0.121-0.396c0.066-0.193,0.13-0.387,0.183-0.583l0.098-0.347
	c0.127-0.437,0.271-0.931,0.327-1.5c0.347-3.524-0.281-7.073-1.866-10.547c-0.211-0.464-0.461-0.873-0.683-1.233
	c-0.137-0.224-0.276-0.447-0.395-0.68c-0.8-1.576-1.925-2.79-2.815-3.671c-2.676-2.648-5.962-4.455-9.769-5.37
	c-1.975-0.474-4.081-0.571-6.627-0.303c-2.005,0.211-4.034,0.822-6.033,1.814c-1.886,0.938-4.05,3.16-5.794,5.11
	c-0.825,0.923-1.703,1.972-2.464,3.176C63.852,9.3,63.096,8.37,62.18,7.419c-2.876-2.981-5.887-5.781-9.203-6.502
	c-1.292-0.281-2.559-0.548-3.867-0.721c-2.144-0.284-4.17,0.172-6.044,0.708c-1.224,0.35-2.326,0.684-3.417,1.227
	c-2.281,1.136-4.377,2.738-6.229,4.762c-1.347,1.473-2.37,2.959-3.126,4.543c-0.51,1.067-0.972,2.21-1.412,3.493
	c-0.388,1.127-0.606,2.064-0.688,2.95c-0.099,1.079-0.084,2.132-0.07,3.151l0.007,0.555c0.008,0.756,0.08,1.375,0.227,1.946
	c0.515,2.008,1.282,3.921,2.036,5.694c0.077,0.179,0.177,0.392,0.338,0.618c0.268,0.373,0.53,0.75,0.793,1.126
	c0.877,1.259,1.785,2.56,2.906,3.767c0.832,0.896,1.604,1.845,2.42,2.85c0.5,0.616,1.001,1.231,1.516,1.835
	c1.943,2.277,3.904,4.54,5.865,6.802l0.461,0.532c0.27,0.311,0.548,0.614,0.827,0.917c0.339,0.368,0.679,0.734,0.996,1.121
	c0.87,1.06,1.726,2.132,2.581,3.204l1.238,1.548c0.942,1.174,1.644,2.089,2.088,3.181c0.469,1.153,0.891,2.285,0.901,3.458
	c0.014,1.594,0.029,3.243-0.609,4.682c-0.707,1.595-1.427,2.697-2.336,3.573c-0.231,0.223-0.468,0.439-0.704,0.657
	c-0.444,0.408-0.904,0.831-1.349,1.302c-1.024,1.085-2.411,1.824-3.879,2.606l-0.126,0.067c-0.893,0.476-1.887,0.843-2.94,1.231
	c-0.374,0.138-0.748,0.275-1.116,0.417c-0.315,0.122-0.635,0.206-0.924,0.243c-2.793,0.361-5.753,0.366-8.801,0.012
	c-0.126-0.015-0.264-0.045-0.396-0.089c-0.89-0.291-1.777-0.59-2.664-0.89l-0.516-0.174c-0.103-0.035-0.207-0.067-0.305-0.112
	c-1.71-0.787-3.167-1.669-4.451-2.698c-0.218-0.175-0.438-0.347-0.659-0.52c-0.943-0.736-1.834-1.432-2.433-2.289
	c-0.297-0.426-0.621-0.834-0.946-1.242c-0.266-0.333-0.533-0.667-0.777-1.015c-0.521-0.742-0.999-1.524-1.438-2.26
	c-0.715-1.197-1.111-2.608-1.53-4.101c-0.093-0.333-0.187-0.666-0.284-0.997c-0.242-0.826-0.262-1.829-0.284-2.906
	c-0.026-1.309-0.259-2.61-0.694-3.87c-0.257-0.747-0.675-1.362-1.009-1.813c-0.704-0.952-1.673-1.714-2.962-2.332
	c-2.144-1.025-3.854-0.52-4.911,0.084C4,47.914,3.709,48.063,3.417,48.211c-1.815,0.922-3.267,3.19-3.376,5.275
	c-0.171,3.25,0.201,6.438,1.105,9.478c0.427,1.437,0.973,2.941,1.623,4.47c0.77,1.812,1.432,3.163,2.148,4.377
	c0.861,1.462,1.806,3.005,3.036,4.382c2.086,2.332,4.451,4.975,7.556,6.879c1.434,0.879,2.847,1.73,4.369,2.484
	c1.451,0.72,2.69,1.241,3.899,1.639c1.82,0.6,3.478,1.052,5.066,1.384c3.483,0.727,6.86,0.55,10.601,0.264
	c0.62-0.048,1.16-0.202,1.636-0.338c0.293-0.083,0.569-0.163,0.784-0.19c2.075-0.267,3.955-0.994,5.858-1.778
	c1.543-0.636,3.15-1.44,4.777-2.391c1.399-0.817,3.009-1.791,4.419-3.009c3.371-2.91,5.839-5.714,7.62-8.676
	c0.094,0.157,0.19,0.312,0.29,0.465c0.553,0.852,1.157,1.647,1.74,2.417l0.46,0.612c0.539,0.72,1.097,1.465,1.745,2.173
	c1.535,1.676,3.28,2.981,5.083,4.281c1.385,0.998,2.934,1.967,4.875,3.049c1.618,0.903,3.309,1.428,4.943,1.936l0.916,0.287
	c0.988,0.315,1.978,0.545,2.935,0.768c0.385,0.089,0.77,0.179,1.158,0.275c0.3,0.073,0.58,0.116,0.854,0.131l4.99,0.204L94.615,89
	c0.065,0,0.13,0,0.195,0c2.051,0,4.14-0.191,6.377-0.708c2.164-0.499,4.289-1.121,6.313-1.907c2.817-1.093,5.294-2.727,7.138-4.042
	c3.773-2.691,6.901-6.102,9.295-10.154c1.153-1.951,2.141-3.997,3.021-6.263l0.067-0.171c0.499-1.284,1.064-2.734,1.167-4.382
	l0.036-0.132C128.9,58.789,129.19,56.337,129.087,53.951z"/>
<path style="fill:#232123;" d="M123.935,72.19c1.153-1.951,2.141-3.997,3.021-6.263l0.067-0.171
	c0.499-1.284,1.064-2.734,1.167-4.382l0.036-0.132c0.676-2.451,0.966-4.904,0.862-7.29c-0.026-0.616-0.11-1.535-0.528-2.398
	c-0.867-1.791-2.133-3.077-3.764-3.822c-0.703-0.321-1.532-0.641-2.614-0.647c-2.005,0.03-3.446,1.078-4.479,1.988
	c-0.439,0.388-1.231,1.205-1.596,2.316c-0.555,1.686-0.825,3.246-0.827,4.769c-0.001,1.162-0.239,2.319-0.706,3.439
	c-0.184,0.442-0.285,0.859-0.374,1.228c-0.029,0.118-0.057,0.235-0.089,0.354c-0.041,0.151-0.075,0.308-0.107,0.463
	c-0.017,0.083-0.03,0.166-0.027,0.179l-0.487,0.956c-0.556,1.099-1.081,2.138-1.702,3.089c-0.619,0.948-1.404,1.907-2.402,2.934
	c-1.986,2.044-4.041,3.524-6.278,4.526c-0.598,0.268-1.236,0.495-1.911,0.735l-0.768,0.276c-0.376,0.138-0.758,0.268-1.145,0.379
	l-0.307,0.09c-0.318,0.095-0.619,0.185-0.846,0.212c-2.133,0.249-4.407,0.284-6.757,0.104c-1.181-0.09-2.322-0.208-3.312-0.656
	c-0.457-0.206-0.928-0.382-1.399-0.556c-0.525-0.194-1.021-0.377-1.443-0.598l-0.341-0.178c-1.269-0.662-2.467-1.287-3.469-2.073
	c-0.972-0.763-1.862-1.678-2.805-2.647c-0.312-0.32-0.623-0.641-0.938-0.956c-1.273-1.274-1.958-3.029-2.604-4.891
	c-0.252-2.003,0.52-4.509,1.778-7.045l0.069-0.088c0.294-0.375,0.615-0.728,0.935-1.082c0.269-0.298,0.537-0.596,0.794-0.902
	c0.415-0.495-8.32,8.955-14.086,8.877c-7.844-0.107-14.22-8.781-14.22-8.781c0.942,1.174,1.644,2.089,2.088,3.181
	c0.469,1.153,0.891,2.285,0.901,3.458c0.014,1.594,0.029,3.243-0.609,4.682c-0.707,1.595-1.427,2.697-2.336,3.573
	c-0.231,0.223-0.468,0.439-0.704,0.657c-0.444,0.408-0.904,0.831-1.349,1.302c-1.024,1.085-2.411,1.824-3.879,2.606l-0.126,0.067
	c-0.893,0.476-1.887,0.843-2.94,1.231c-0.374,0.138-0.748,0.275-1.116,0.417c-0.315,0.122-0.635,0.206-0.924,0.243
	c-2.793,0.361-5.753,0.366-8.801,0.012c-0.126-0.015-0.264-0.045-0.396-0.089c-0.89-0.291-1.777-0.59-2.664-0.89l-0.516-0.174
	c-0.103-0.035-0.207-0.067-0.305-0.112c-1.71-0.787-3.167-1.669-4.451-2.698c-0.218-0.175-0.438-0.347-0.659-0.52
	c-0.943-0.736-1.834-1.432-2.433-2.289c-0.297-0.426-0.621-0.834-0.946-1.242c-0.266-0.333-0.533-0.667-0.777-1.015
	c-0.521-0.742-0.999-1.524-1.438-2.26c-0.715-1.197-1.111-2.608-1.53-4.101c-0.093-0.333-0.187-0.666-0.284-0.997
	c-0.242-0.826-0.262-1.829-0.284-2.906c-0.026-1.309-0.259-2.61-0.694-3.87c-0.257-0.747-0.675-1.362-1.009-1.813
	c-0.704-0.952-1.673-1.714-2.962-2.332c-2.144-1.025-3.854-0.52-4.911,0.084C4,47.914,3.709,48.063,3.417,48.211
	c-1.815,0.922-3.267,3.19-3.376,5.275c-0.171,3.25,0.201,6.438,1.105,9.478c0.427,1.437,0.973,2.941,1.623,4.47
	c0.77,1.812,1.432,3.163,2.148,4.377c0.861,1.462,1.806,3.005,3.036,4.382c2.086,2.332,4.451,4.975,7.556,6.879
	c1.434,0.879,2.847,1.73,4.369,2.484c1.451,0.72,2.69,1.241,3.899,1.639c1.82,0.6,3.478,1.052,5.066,1.384
	c3.483,0.727,6.86,0.55,10.601,0.264c0.62-0.048,1.16-0.202,1.636-0.338c0.293-0.083,0.569-0.163,0.784-0.19
	c2.075-0.267,3.955-0.994,5.858-1.778c1.543-0.636,3.15-1.44,4.777-2.391c1.399-0.817,3.009-1.791,4.419-3.009
	c3.371-2.91,5.839-5.714,7.62-8.676c0.094,0.157,0.19,0.312,0.29,0.465c0.553,0.852,1.157,1.647,1.74,2.417l0.46,0.612
	c0.539,0.72,1.097,1.465,1.745,2.173c1.535,1.676,3.28,2.981,5.083,4.281c1.385,0.998,2.934,1.967,4.875,3.049
	c1.618,0.903,3.309,1.428,4.943,1.936l0.916,0.287c0.988,0.315,1.978,0.545,2.935,0.768c0.385,0.089,0.77,0.179,1.158,0.275
	c0.3,0.073,0.58,0.116,0.854,0.131l4.99,0.204L94.615,89c0.065,0,0.13,0,0.195,0c2.051,0,4.14-0.191,6.377-0.708
	c2.164-0.499,4.289-1.121,6.313-1.907c2.817-1.093,5.294-2.727,7.138-4.042C118.413,79.652,121.541,76.241,123.935,72.19z"/>
<g>
</g>
<g>
</g>
<g>
</g>
<g>
</g>
<g>
</g>
<g>
</g>
<g>
</g>
<g>
</g>
<g>
</g>
<g>
</g>
<g>
</g>
<g>
</g>
<g>
</g>
<g>
</g>
<g>
</g>
</svg>
